PathFileType	4	(X/Y/Z)	/Users/itak/Documents/Research/Walk-IL/dataset/trc/00074_00006.trc
DataRate	CameraRate	NumFrames	NumMarkers	Units	OrigDataRate	OrigDataStartFrame	OrigNumFrames
100.000000	100.000000	4	53	mm	100.000000	0	718
Frame#	Time	RPSI			LPSI			L3			STRN			T10			C7			CLAV			RBAK			LBAK			LSHO			LUPA			LAEL			LAOL			LWTS			LWPS			LFRA			LIFD			LHPS			LHTS			RSHO			RUPA			RAEL			RAOL			RWTS			RWPS			RFRA			RIFD			RHTS			RHPS			RBHD			LFHD			RFHD			LBHD			LHIP			RHIP			RASI			LASI			LKNE			LTHI			LANK			LTIP			LTOE			LMT1			LMT5			LHEE			RKNE			RTHI			RANK			RTIP			RTOE			RMT1			RMT5			RHEE			
		X1	Y1	Z1	X2	Y2	Z2	X3	Y3	Z3	X4	Y4	Z4	X5	Y5	Z5	X6	Y6	Z6	X7	Y7	Z7	X8	Y8	Z8	X9	Y9	Z9	X10	Y10	Z10	X11	Y11	Z11	X12	Y12	Z12	X13	Y13	Z13	X14	Y14	Z14	X15	Y15	Z15	X16	Y16	Z16	X17	Y17	Z17	X18	Y18	Z18	X19	Y19	Z19	X20	Y20	Z20	X21	Y21	Z21	X22	Y22	Z22	X23	Y23	Z23	X24	Y24	Z24	X25	Y25	Z25	X26	Y26	Z26	X27	Y27	Z27	X28	Y28	Z28	X29	Y29	Z29	X30	Y30	Z30	X31	Y31	Z31	X32	Y32	Z32	X33	Y33	Z33	X34	Y34	Z34	X35	Y35	Z35	X36	Y36	Z36	X37	Y37	Z37	X38	Y38	Z38	X39	Y39	Z39	X40	Y40	Z40	X41	Y41	Z41	X42	Y42	Z42	X43	Y43	Z43	X44	Y44	Z44	X45	Y45	Z45	X46	Y46	Z46	X47	Y47	Z47	X48	Y48	Z48	X49	Y49	Z49	X50	Y50	Z50	X51	Y51	Z51	X52	Y52	Z52	X53	Y53	Z53	

1	0	279.1365966796875	1032.596069335938	1042.717895507812	289.2595520019531	1023.244689941406	1217.396850585938	281.5871887207031	1077.479248046875	1136.962646484375	47.65234756469727	1284.375	1132.587890625	310.4871215820312	1211.372436523438	1142.269775390625	261.3897705078125	1480.019165039062	1144.78759765625	80.62054443359375	1397.274658203125	1134.744262695312	321.2190246582031	1339.334228515625	1070.692626953125	278.3025512695312	1441.790893554688	1247.6220703125	170.3845825195312	1448.441650390625	1315.030639648438	172.8981475830078	1319.055053710938	1390.900146484375	132.5768585205078	1103.322265625	1397.88037109375	206.6923370361328	1088.141723632812	1321.707885742188	38.05754089355469	870.8091430664062	1310.316528320312	85.60444641113281	855.417236328125	1377.485595703125	103.9653472900391	995.235107421875	1397.297973632812	16.5394458770752	686.6653442382812	1283.036254882812	48.60436248779297	776.1383666992188	1364.364379882812	11.27621841430664	789.1792602539062	1307.224365234375	202.217041015625	1444.755615234375	965.4280395507812	208.8132934570312	1373.57666015625	902.1752319335938	207.6361541748047	1101.989135742188	887.0223999023438	193.7147369384766	1088.485107421875	983.6346435546875	47.40709686279297	864.7084350585938	942.7675170898438	113.0232315063477	842.5536499023438	889.6875610351562	186.8063049316406	1024.236328125	885.3626708984375	27.10318374633789	675.0651245117188	963.635498046875	18.47000885009766	762.1304931640625	947.249267578125	72.08726501464844	755.7518310546875	892.2327880859375	230.2891693115234	1655.792846679688	1209.767822265625	84.79708862304688	1700.396606445312	1057.417114257812	62.90560150146484	1710.602416992188	1181.224243164062	244.4784698486328	1639.0498046875	1074.089599609375	185.5787811279297	959.8551025390625	1306.1201171875	210.7569427490234	962.3290405273438	966.965087890625	86.68989562988281	979.9037475585938	986.3623046875	72.26164245605469	971.5867309570312	1255.604370117188	119.3363800048828	497.2721557617188	1261.423217773438	148.6643676757812	638.4610595703125	1295.875	269.3333740234375	52.35414123535156	1286.33154296875	200.1928253173828	261.9498901367188	1287.553588867188	62.79293823242188	45.73050689697266	1288.541748046875	109.0225296020508	42.78745651245117	1231.918090820312	167.6481781005859	42.38469696044922	1328.098510742188	317.8949890136719	46.75126266479492	1208.647705078125	135.4952850341797	516.9741821289062	977.87060546875	130.2178955078125	789.648681640625	954.2977294921875	247.7909545898438	45.6416015625	973.43359375	163.181884765625	396.5258178710938	970.5454711914062	31.06798362731934	40.64977645874023	1006.854064941406	92.25751495361328	43.81375503540039	1047.845092773438	123.7444076538086	46.97062301635742	955.4323120117188	295.6926574707031	45.78266143798828	1030.199340820312	
2	0.01	278.9753112792969	1032.553955078125	1042.536499023438	289.1059875488281	1023.246520996094	1217.219360351562	281.4430847167969	1077.499267578125	1136.782958984375	47.60123825073242	1284.2841796875	1132.372192382812	310.3267211914062	1211.394653320312	1142.128295898438	261.1941528320312	1480.025146484375	1144.664916992188	80.58447265625	1397.216674804688	1134.53369140625	321.1048889160156	1339.357543945312	1070.598388671875	278.0333251953125	1441.8115234375	1247.496704101562	170.1195068359375	1448.413452148438	1314.842895507812	172.55078125	1319.059326171875	1390.744873046875	132.4894866943359	1103.295166015625	1397.672607421875	206.9515533447266	1088.22314453125	1321.903930664062	39.18691253662109	870.2662353515625	1309.753784179688	86.20093536376953	855.1969604492188	1377.347778320312	104.0868072509766	995.1085205078125	1397.037963867188	18.73751831054688	685.8898315429688	1282.782836914062	49.67532348632812	775.8374633789062	1364.296630859375	12.97654342651367	788.4576416015625	1306.652709960938	202.2011260986328	1444.750610351562	965.25732421875	208.9401550292969	1373.57568359375	902.014404296875	207.9873352050781	1102.023071289062	886.777587890625	193.9281616210938	1088.44677734375	983.3905639648438	47.99655532836914	864.4473876953125	941.9518432617188	113.8470077514648	842.4625854492188	889.0364379882812	187.26123046875	1024.284301757812	885.0315551757812	28.07575988769531	674.7615356445312	962.5933227539062	19.32176780700684	761.812255859375	946.29296875	73.06526947021484	755.5547485351562	891.421142578125	230.3955230712891	1655.599609375	1209.628173828125	84.98983001708984	1700.441162109375	1057.276000976562	63.09882354736328	1710.671264648438	1181.067138671875	244.5514068603516	1638.84130859375	1073.924682617188	185.4034576416016	959.8556518554688	1305.930786132812	210.6366577148438	962.2992553710938	966.764892578125	86.62197875976562	979.82763671875	986.2054443359375	72.09291076660156	971.5177001953125	1255.458374023438	119.3100814819336	497.2529602050781	1261.336669921875	148.6515045166016	638.485595703125	1295.791870117188	269.3313903808594	52.36641693115234	1286.328125	200.1901397705078	261.9641723632812	1287.516357421875	62.74988174438477	45.68947219848633	1288.529663085938	109.0134887695312	42.78044128417969	1231.9169921875	167.6429748535156	42.37177276611328	1328.078125	317.8857727050781	46.74750518798828	1208.635131835938	135.4639739990234	516.9282836914062	977.736572265625	130.0966186523438	789.6124267578125	954.089111328125	247.7945098876953	45.59726715087891	973.4061889648438	163.2039031982422	396.5047302246094	970.4500122070312	31.07851028442383	40.64910125732422	1006.848693847656	92.26297760009766	43.81958770751953	1047.832885742188	123.7474746704102	46.95879364013672	955.4227294921875	295.6895751953125	45.77102661132812	1030.181640625	
3	0.02	278.7637939453125	1032.504028320312	1042.302124023438	288.9174194335938	1023.249694824219	1216.99267578125	281.2443237304688	1077.516479492188	1136.553833007812	47.51893997192383	1284.171752929688	1132.079711914062	310.1358642578125	1211.415283203125	1141.94677734375	260.9722900390625	1480.027099609375	1144.506958007812	80.535888671875	1397.147827148438	1134.262939453125	320.9740905761719	1339.378295898438	1070.478881835938	277.7047424316406	1441.836791992188	1247.331420898438	169.7938995361328	1448.379272460938	1314.602905273438	172.146240234375	1319.062133789062	1390.554321289062	132.3937377929688	1103.254516601562	1397.419921875	207.2788391113281	1088.319946289062	1322.129638671875	40.60643005371094	869.6049194335938	1309.099365234375	86.97196197509766	854.9312133789062	1377.202758789062	104.2545318603516	994.9446411132812	1396.718627929688	21.44116973876953	684.9691772460938	1282.49755859375	51.00916290283203	775.442626953125	1364.198974609375	14.89818954467773	787.6334228515625	1305.986328125	202.1738433837891	1444.740112304688	965.0381469726562	209.0859222412109	1373.574096679688	901.8102416992188	208.4318389892578	1102.066040039062	886.466064453125	194.2001647949219	1088.39794921875	983.0772705078125	48.76262283325195	864.1138916015625	940.93115234375	114.8938369750977	842.3444213867188	888.2156372070312	187.8405303955078	1024.345092773438	884.611328125	29.35397338867188	674.3637084960938	961.3071899414062	20.44003486633301	761.3894653320312	945.1264038085938	74.32151031494141	755.3109130859375	890.397705078125	230.5312347412109	1655.356689453125	1209.451049804688	85.23553466796875	1700.493041992188	1057.08740234375	63.33078002929688	1710.749877929688	1180.861694335938	244.6432495117188	1638.575805664062	1073.717041015625	185.1974487304688	959.857666015625	1305.698486328125	210.4898986816406	962.2669067382812	966.5196533203125	86.51549530029297	979.7337646484375	986.0072021484375	71.88710021972656	971.430419921875	1255.280639648438	119.2839965820312	497.2297668457031	1261.232666015625	148.6290740966797	638.51220703125	1295.683959960938	269.3289489746094	52.3809928894043	1286.322509765625	200.1934356689453	261.9819641113281	1287.4697265625	62.71290588378906	45.65403366088867	1288.518920898438	109.0051651000977	42.77512741088867	1231.916870117188	167.6391754150391	42.3647346496582	1328.060668945312	317.8749694824219	46.74279022216797	1208.619140625	135.4486389160156	516.8729248046875	977.578857421875	129.9260711669922	789.5653686523438	953.8370361328125	247.8034973144531	45.54070281982422	973.3719482421875	163.2418518066406	396.4782409667969	970.3330688476562	31.09172058105469	40.64858245849609	1006.841491699219	92.27184295654297	43.82820510864258	1047.819580078125	123.7537612915039	46.94466781616211	955.4107666015625	295.6828002929688	45.75364685058594	1030.160034179688	
4	0.03	278.5077209472656	1032.450927734375	1042.02197265625	288.7017211914062	1023.254455566406	1216.725341796875	280.9926452636719	1077.527709960938	1136.284057617188	47.40200042724609	1284.045532226562	1131.715454101562	309.9268188476562	1211.43017578125	1141.731689453125	260.7439880371094	1480.022827148438	1144.319091796875	80.47306060791016	1397.07275390625	1133.940185546875	320.8369140625	1339.391967773438	1070.338745117188	277.3406372070312	1441.864013671875	1247.13134765625	169.4261474609375	1448.340698242188	1314.3193359375	171.7169036865234	1319.062866210938	1390.338500976562	132.3038482666016	1103.197998046875	1397.138305664062	207.6634216308594	1088.425903320312	1322.363647460938	42.25458526611328	868.8629150390625	1308.409301757812	87.89647674560547	854.6345825195312	1377.067504882812	104.4748382568359	994.7481689453125	1396.35888671875	24.5149097442627	683.960205078125	1282.20947265625	52.54710006713867	774.9692993164062	1364.077392578125	16.89948081970215	786.7669067382812	1305.274169921875	202.1334838867188	1444.723388671875	964.7766723632812	209.2406616210938	1373.571655273438	901.5697021484375	208.9541931152344	1102.116821289062	886.097900390625	194.5201263427734	1088.340209960938	982.7047729492188	49.6878662109375	863.720703125	939.7510375976562	116.1259307861328	842.2034912109375	887.2562255859375	188.5250854492188	1024.416259765625	884.11669921875	30.91059684753418	673.8829345703125	959.8390502929688	21.7922477722168	760.8761596679688	943.80078125	75.81471252441406	755.0319213867188	889.2025756835938	230.6907653808594	1655.074340820312	1209.242431640625	85.52275848388672	1700.5478515625	1056.855224609375	63.58707809448242	1710.830932617188	1180.612670898438	244.7495422363281	1638.264770507812	1073.476440429688	184.9798126220703	959.8614501953125	1305.435302734375	210.3193206787109	962.2348022460938	966.2417602539062	86.36415100097656	979.626220703125	985.7750244140625	71.65522766113281	971.3300170898438	1255.07958984375	119.2606353759766	497.2041931152344	1261.116821289062	148.5944671630859	638.5382080078125	1295.5537109375	269.3259582519531	52.39677810668945	1286.315063476562	200.2047424316406	262.0025634765625	1287.416137695312	62.68648147583008	45.62849807739258	1288.510620117188	108.9992523193359	42.77257537841797	1231.917846679688	167.6383361816406	42.36717224121094	1328.050170898438	317.8634033203125	46.73678207397461	1208.600708007812	135.4592437744141	516.8107299804688	977.4091796875	129.7086334228516	789.5088500976562	953.558349609375	247.8191375732422	45.4748420715332	973.3326416015625	163.2984466552734	396.4468994140625	970.2007446289062	31.10677528381348	40.64935684204102	1006.832763671875	92.28417205810547	43.83976745605469	1047.80615234375	123.763313293457	46.92960739135742	955.3973388671875	295.6724548339844	45.73045349121094	1030.1357421875	
